<svg width="19" height="18" viewBox="0 0 19 18" fill="none" xmlns="http://www.w3.org/2000/svg">
<path d="M8.63901 0.945757C8.67553 0.871974 8.73195 0.809867 8.80189 0.766445C8.87183 0.723022 8.95252 0.700012 9.03485 0.700012C9.11717 0.700012 9.19786 0.723022 9.2678 0.766445C9.33775 0.809867 9.39416 0.871974 9.43068 0.945757L11.3557 4.84492C11.4825 5.10156 11.6697 5.3236 11.9012 5.49197C12.1327 5.66034 12.4016 5.77002 12.6848 5.81159L16.9898 6.44159C17.0714 6.45341 17.1481 6.48782 17.2111 6.54092C17.2741 6.59403 17.321 6.66371 17.3465 6.7421C17.372 6.82048 17.3751 6.90443 17.3553 6.98445C17.3356 7.06448 17.2939 7.13738 17.2348 7.19492L14.1215 10.2266C13.9162 10.4267 13.7626 10.6737 13.6739 10.9463C13.5852 11.2189 13.5641 11.509 13.6123 11.7916L14.3473 16.0749C14.3617 16.1565 14.3529 16.2404 14.3219 16.3172C14.2909 16.3939 14.239 16.4604 14.172 16.5091C14.105 16.5577 14.0257 16.5866 13.9431 16.5923C13.8605 16.5981 13.7779 16.5805 13.7048 16.5416L9.85651 14.5183C9.60294 14.3851 9.32083 14.3155 9.03443 14.3155C8.74803 14.3155 8.46591 14.3851 8.21235 14.5183L4.36485 16.5416C4.29179 16.5803 4.20934 16.5977 4.12689 16.5918C4.04443 16.5859 3.96528 16.5571 3.89842 16.5084C3.83157 16.4598 3.77971 16.3934 3.74873 16.3168C3.71775 16.2401 3.70889 16.1563 3.72318 16.0749L4.45735 11.7924C4.50584 11.5097 4.48483 11.2194 4.39613 10.9466C4.30742 10.6738 4.15369 10.4267 3.94818 10.2266L0.834845 7.19576C0.77534 7.13828 0.733173 7.06525 0.713147 6.98499C0.693122 6.90472 0.696043 6.82044 0.721578 6.74175C0.747112 6.66306 0.794234 6.59312 0.857576 6.53991C0.920917 6.48669 0.997932 6.45234 1.07985 6.44076L5.38401 5.81159C5.66756 5.77034 5.93684 5.6608 6.16867 5.49241C6.40049 5.32402 6.58793 5.10182 6.71485 4.84492L8.63901 0.945757Z" stroke="#949494" stroke-width="1.4" stroke-linecap="round" stroke-linejoin="round"/>
</svg>
